PathFileType	4	(X/Y/Z)	C:\Users\Basilio\Documents\Thesis Gigler\squatting_fais\c3dfiles\077\SJ_pre2\markers_experimental.trc
DataRate	CameraRate	NumFrames	NumMarkers	Units	OrigDataRate	OrigDataStartFrame	OrigNumFrames
200.000000	200.000000	4	60	mm	200.000000	947	1263
Frame#	Time	FHD			LBHD			RBHD			C7			T10			CLAV			LSHO			LUUPA			LMUPA			LDUPA			LLEP			LMEP			LRAD			LUL			LRFIN			RSHO			RUPA1			RMUPA			RDUPA			RLEP			RMEP			RRAD			RUL			RUFIN			LASI			RASI			USACR			LSACR			RSACR			LTHI1			LTHI2			LTHI3			LTHI4			LLFC			LMFC			LTIB1			LTIB2			LTIB3			LTIB4			LLMAL			LHEE			LMT1			LMT2			LMT5			RTHI			RTHI2			RTHI3			RTHI4			RLFC			RMFC			RTIB1			RTIB2			RTIB3			RTIB4			RLMAL			RMMAL			RHEE			RMT1			RMT2			RMT5			
		X1	Y1	Z1	X2	Y2	Z2	X3	Y3	Z3	X4	Y4	Z4	X5	Y5	Z5	X6	Y6	Z6	X7	Y7	Z7	X8	Y8	Z8	X9	Y9	Z9	X10	Y10	Z10	X11	Y11	Z11	X12	Y12	Z12	X13	Y13	Z13	X14	Y14	Z14	X15	Y15	Z15	X16	Y16	Z16	X17	Y17	Z17	X18	Y18	Z18	X19	Y19	Z19	X20	Y20	Z20	X21	Y21	Z21	X22	Y22	Z22	X23	Y23	Z23	X24	Y24	Z24	X25	Y25	Z25	X26	Y26	Z26	X27	Y27	Z27	X28	Y28	Z28	X29	Y29	Z29	X30	Y30	Z30	X31	Y31	Z31	X32	Y32	Z32	X33	Y33	Z33	X34	Y34	Z34	X35	Y35	Z35	X36	Y36	Z36	X37	Y37	Z37	X38	Y38	Z38	X39	Y39	Z39	X40	Y40	Z40	X41	Y41	Z41	X42	Y42	Z42	X43	Y43	Z43	X44	Y44	Z44	X45	Y45	Z45	X46	Y46	Z46	X47	Y47	Z47	X48	Y48	Z48	X49	Y49	Z49	X50	Y50	Z50	X51	Y51	Z51	X52	Y52	Z52	X53	Y53	Z53	X54	Y54	Z54	X55	Y55	Z55	X56	Y56	Z56	X57	Y57	Z57	X58	Y58	Z58	X59	Y59	Z59	X60	Y60	Z60	

948	4.735	-56.810115814209	1557.77294921875	-902.9719848632815	-186.8847198486328	1438.0283203125	-975.9139404296877	-195.9996795654297	1432.940673828125	-831.6124267578127	-255.4585113525391	1352.799560546875	-913.081726074219	-395.8472900390626	1042.056030273438	-917.2590942382815	-104.8406677246094	1244.151123046875	-906.6389770507815	-127.3046875	1304.794799804688	-1090.904541015625	-185.2996826171875	1196.087280273438	-1272.318603515625	-170.3181304931641	1148.232543945313	-1271.4052734375	-204.289779663086	1152.398193359375	-1321.7529296875	-219.7231445312501	1092.3369140625	-1356.364379882813	-305.4516906738282	1104.145385742188	-1342.549926757813	-318.7799377441407	893.5623168945315	-1142.962890625	-289.6940917968751	834.2152099609377	-1190.072631835938	nan	nan	nan	-108.4584579467774	1286.644897460938	-725.4408569335939	-199.8709411621094	1174.571655273438	-544.7230224609376	-193.1820373535157	1125.242919921875	-550.8971557617189	-230.1542205810547	1125.721313476563	-504.1180114746095	-256.0549621582032	1063.6142578125	-479.481170654297	-339.9125061035157	1082.27978515625	-499.3594970703126	-356.3703002929688	868.6174926757815	-677.2581787109376	-305.0909423828126	816.3214111328127	-645.7138671875001	-307.8576965332032	861.6394653320315	-734.3442382812501	-276.9309387207032	824.1257324218752	-1051.89306640625	-276.7506713867188	813.4766235351565	-798.0151367187502	-446.3387451171876	948.116149902344	-919.1565551757815	-464.1334228515626	925.227966308594	-948.064880371094	-469.1409301757814	921.1206054687502	-893.2210693359377	-299.8773498535157	677.7001342773439	-1167.499755859375	-231.3900604248047	640.8796386718751	-1199.297485351563	-192.9271545410157	669.8750610351564	-1194.144409179688	-222.365951538086	581.1278686523439	-1207.687866210938	-115.4229354858399	475.5104064941407	-1234.303100585938	-78.20981597900392	436.4346313476564	-1117.390502929688	-172.8085021972657	261.6888427734376	-1183.593872070313	-240.6346130371094	253.2038269042969	-1245.83984375	-210.9030914306641	230.3626403808594	-1218.10791015625	-256.3038635253907	165.4390258789063	-1186.256469726563	-377.2824401855469	105.7746047973633	-1217.625244140625	-432.8458251953126	51.88357162475587	-1157.897094726563	-220.7514648437501	54.4745445251465	-1207.79052734375	-233.5117340087891	58.4771194458008	-1248.479858398438	-329.7589416503907	95.08972167968751	-1141.068237304688	-259.9967956542969	599.1665039062501	-613.2528076171876	-196.2472076416016	586.1680908203126	-585.5253906250001	-168.8067169189453	606.6082763671876	-589.8572387695314	-168.6781921386719	507.4671325683595	-579.7559204101564	-148.1620483398438	458.071746826172	-562.9653930664064	-91.78718566894533	426.0390930175782	-672.4033203125001	-157.2733917236328	318.9089660644532	-568.4090576171876	-260.4179992675782	286.9289245605469	-559.9201660156251	-221.929183959961	259.9296569824219	-568.7183837890626	-230.4384155273438	217.9846954345704	-609.3594970703126	-388.7283935546876	100.1069488525391	-599.6354980468751	-338.9528808593751	86.82466888427736	-676.7194213867189	-444.762420654297	51.3984832763672	-666.6588134765626	-236.5856628417969	58.03492736816408	-574.8396606445314	-253.2118072509766	59.5593948364258	-541.3363647460939	-285.2566223144532	41.18725967407227	-500.9984741210939	
949	4.74	-56.74271774291994	1558.522583007813	-903.487976074219	-186.8976440429688	1439.5263671875	-976.6364746093752	-196.4194335937501	1433.91748046875	-832.1519775390627	-255.9344329833985	1353.835693359375	-913.5584716796877	-396.1051330566407	1042.900756835938	-917.5012817382815	-105.2971649169922	1245.410034179688	-907.2340087890627	-127.8055267333985	1305.874755859375	-1091.660766601563	-186.6908721923828	1197.346801757813	-1273.161376953125	-171.3574981689453	1149.541625976563	-1272.449584960938	-205.4940338134766	1153.54296875	-1322.5556640625	-220.5456695556641	1093.07763671875	-1356.989379882813	-305.8394165039063	1104.405029296875	-1342.737915039063	-318.8454284667969	894.5344848632815	-1143.084106445313	-289.4043273925782	834.8770141601565	-1189.974243164063	nan	nan	nan	-109.1402740478516	1288.117553710938	-725.9880371093751	-200.3862609863282	1176.117065429688	-545.1522216796876	-193.6642303466797	1126.754150390625	-551.1339721679689	-230.6786346435547	1127.217895507813	-504.4321289062501	-256.4303894042969	1065.056640625	-479.7318725585939	-340.5480651855469	1083.27197265625	-499.8132934570314	-356.3739624023438	869.4129638671877	-677.4114990234376	-304.7596435546876	817.2603759765627	-645.7669677734376	-307.7745971679688	862.5905761718752	-734.6718139648439	-274.0002136230469	822.2351684570315	-1045.034790039063	-279.4743347167969	818.1866455078127	-790.9112548828127	-446.8613281250001	948.8240966796877	-919.1107177734377	-463.9697265625001	924.985534667969	-948.138366699219	-470.0928955078126	922.4736328125002	-893.2276611328127	-300.4534606933594	678.2336425781251	-1167.649536132813	-231.1596069335938	641.0655517578126	-1199.082763671875	-193.4386901855469	670.4259033203126	-1194.433349609375	-222.1930847167969	581.4273681640626	-1207.686767578125	-116.4636840820313	475.913299560547	-1234.464111328125	-80.34179687500001	436.3811645507814	-1117.85595703125	-173.6507110595703	261.9961853027344	-1183.811645507813	-240.6136627197266	252.3540039062501	-1245.961791992188	-211.5311889648438	230.6384735107422	-1218.224853515625	-256.5962829589844	165.5743560791016	-1186.1953125	-377.3929443359376	105.441032409668	-1217.7294921875	-433.0003967285157	51.53405380249025	-1158.033813476563	-220.2980346679688	55.62187957763673	-1208.213623046875	-233.6002502441407	58.58762741088869	-1248.520751953125	-329.9441223144532	94.85872650146486	-1141.246704101563	-260.3426818847657	599.8395996093751	-613.5240478515626	-196.5043640136719	586.8761596679689	-585.8888549804689	-169.0470733642578	607.0104370117189	-590.3005371093751	-168.9585723876953	508.1990661621095	-580.0684204101564	-148.5013122558594	458.3921813964845	-563.3625488281251	-92.59714508056642	426.1739807128907	-672.7348022460939	-157.731201171875	319.2988891601563	-568.6607055664064	-260.8376770019532	287.4966430664063	-560.1909790039064	-222.3548889160157	260.2225646972657	-568.9912719726564	-230.7653045654297	218.321029663086	-609.4649047851564	-388.7565917968751	100.1320419311524	-599.6696166992189	-338.8553466796876	86.80904388427736	-676.6706542968751	-444.7662048339845	51.37792968750001	-666.6389770507814	-236.5370788574219	58.11141586303712	-574.8840942382814	-253.2201080322266	59.6540870666504	-541.2981567382814	-285.2353515625001	41.18139648437501	-501.0313110351564	
950	4.745	-56.71962738037111	1559.548217773438	-903.9835205078127	-187.1117248535157	1440.265869140625	-976.980895996094	-196.9057159423829	1434.884765625	-832.6165771484377	-256.6192626953126	1354.794799804688	-914.1179809570315	-396.4904785156251	1043.817138671875	-917.7747192382815	-105.8721389770508	1246.82470703125	-907.938171386719	-128.7664947509766	1307.162109375	-1092.3818359375	-187.3906860351563	1198.499267578125	-1273.857421875	-171.41259765625	1150.91015625	-1273.284912109375	-206.0581817626954	1154.525024414063	-1323.150634765625	-221.0564117431641	1093.91650390625	-1357.501098632813	-306.4021301269532	1105.061645507813	-1343.012451171875	-319.0365600585938	895.416931152344	-1143.100830078125	-289.2321166992188	835.995300292969	-1189.966186523438	nan	nan	nan	-109.7186126708985	1289.6640625	-726.3770141601564	-201.0400085449219	1177.680908203125	-545.4781494140626	-194.0482788085938	1128.416381835938	-551.4584960937501	-231.2452697753907	1128.80029296875	-504.7903442382814	-256.7435302734376	1066.714721679688	-479.9885253906251	-340.8260803222657	1084.67822265625	-500.2956542968751	-356.2538757324219	870.4876098632815	-677.4916992187501	-304.4512634277344	818.6378173828127	-645.9871215820314	-307.8718261718751	863.470886230469	-735.0313720703126	-274.7060852050782	823.1682128906252	-1045.573852539063	-280.0954284667969	818.261169433594	-791.3479003906252	-447.1888427734376	949.7496337890627	-919.1389160156252	-464.3762817382814	926.0345458984377	-948.073181152344	-470.5630493164064	923.3092041015627	-893.2559204101565	-301.6484069824219	679.2254638671876	-1167.88818359375	-231.9596862792969	641.7656860351564	-1199.32421875	-193.5703582763672	670.9331054687501	-1194.393432617188	-223.3287811279297	582.1571655273439	-1207.830322265625	-118.4071426391602	476.4104309082032	-1234.70166015625	-82.3290252685547	436.596405029297	-1118.068115234375	-174.2170104980469	262.1172790527344	-1183.8896484375	-241.3788604736329	252.6635894775391	-1246.034057617188	-212.3852844238282	230.9993438720704	-1218.25732421875	-256.9339294433594	165.8750915527344	-1186.113525390625	-377.6355590820313	105.3068237304688	-1217.767211914063	-433.138641357422	51.32018661499025	-1158.15087890625	-220.4551239013672	55.76044845581056	-1208.238647460938	-233.7318420410157	58.65087509155275	-1248.504516601563	-330.0848999023438	94.93025207519533	-1141.33935546875	-260.6149597167969	600.7552490234376	-613.7490234375001	-196.8818359375001	587.4598999023439	-586.3455810546876	-169.3923950195313	607.7434082031251	-590.8048095703126	-169.3407745361328	508.8871154785157	-580.3793945312501	-149.0200347900391	458.7586059570314	-563.8215332031251	-93.1636428833008	426.6406860351564	-673.2363281250001	-158.2037353515625	319.8336791992188	-568.9436035156251	-261.2298583984376	287.9013977050782	-560.4216918945314	-222.7007293701172	260.8097229003907	-569.2319335937501	-231.0516510009766	218.5348052978516	-609.5346069335939	-388.7985839843751	100.2086257934571	-599.6940917968751	-339.0514831542969	86.83982086181642	-676.7047119140626	-444.7601928710939	51.37863159179689	-666.6479492187501	-236.5279693603516	58.08292388916017	-574.9328613281251	-253.1660919189454	59.70371627807619	-541.2873535156251	-285.2047424316407	41.23141860961915	-501.0083007812501	
951	4.75	-57.00766754150392	1561.183349609375	-904.5377197265627	-187.4686737060547	1441.800903320313	-977.5662231445315	-197.3991851806641	1436.055786132813	-833.0748291015627	-257.1371459960938	1355.872192382813	-914.6385498046877	-396.7374572753907	1045.07763671875	-918.0007934570315	-106.1117248535157	1248.26708984375	-908.4074707031252	-129.5917510986328	1308.763793945313	-1093.127563476563	-188.5052947998047	1199.87646484375	-1274.504638671875	-171.7649078369141	1152.336791992188	-1273.971801757813	-206.6096496582032	1155.485473632813	-1323.554931640625	-221.9553527832032	1095.210815429688	-1358.09326171875	-307.2588500976563	1106.036499023438	-1343.154418945313	-319.1728515625001	896.5485839843752	-1143.2197265625	-289.3704528808594	837.0080566406252	-1189.983520507813	nan	nan	nan	-110.3341217041016	1291.4072265625	-726.7841186523439	-201.6095581054688	1179.597900390625	-546.0184326171876	-194.4786376953126	1130.129760742188	-551.7717895507814	-231.6532745361329	1130.6552734375	-505.0886230468751	-257.1711120605469	1068.335205078125	-480.2540893554689	-341.1509399414063	1086.222412109375	-500.7622375488282	-356.0786132812501	871.707214355469	-677.6188354492189	-304.1754150390626	819.8730468750002	-646.1050415039064	-307.9927978515626	864.3477783203127	-735.2564697265626	-279.9935607910157	826.3122558593752	-1054.2490234375	-277.2113647460938	815.4228515625002	-800.0504150390627	-447.135223388672	951.2890625000002	-919.3850097656252	-465.3105468750001	928.6102294921877	-948.063171386719	-469.8724670410157	924.5549316406252	-893.1940917968752	-302.2899780273438	680.0397338867189	-1168.000854492188	-232.9147033691407	642.6328125000001	-1199.530883789063	-194.4116516113282	671.5129394531251	-1194.582763671875	-224.3002624511719	582.9053955078126	-1207.853881835938	-118.55224609375	476.4714355468751	-1234.532836914063	-84.50077056884767	436.6697692871095	-1118.58154296875	-174.8006134033203	262.4780578613282	-1183.741088867188	-241.9476623535157	252.7190704345704	-1246.133422851563	-212.7528076171876	231.0377655029297	-1218.36669921875	-257.4149780273438	166.0397033691407	-1186.13671875	-377.7241516113282	105.1632995605469	-1217.89404296875	-433.2840576171876	50.98449325561525	-1158.28466796875	-220.477523803711	55.8065872192383	-1208.187744140625	-233.7481994628907	58.60717010498048	-1248.504516601563	-330.2649841308594	94.87123870849611	-1141.457275390625	-261.0028076171876	601.6154174804689	-613.9711303710939	-197.2769775390626	588.4119262695314	-586.7769775390626	-169.7427215576172	608.6527709960939	-591.3060913085939	-169.9498443603516	509.5078125000001	-580.7201538085939	-149.6751708984375	459.4306030273439	-564.3561401367189	-93.94090270996095	427.5921020507814	-673.9726562500001	-158.7780914306641	320.3879394531251	-569.2758178710939	-261.7781372070313	288.3828735351563	-560.6243896484376	-223.0927124023438	261.3305664062501	-569.4176025390626	-231.376937866211	218.8361053466797	-609.5883178710939	-388.8375854492189	100.2451171875	-599.7020874023439	-339.0476989746094	86.93962860107423	-676.6242675781251	-444.7784423828126	51.43343353271486	-666.6312255859376	-236.5935211181641	58.0372886657715	-574.9550781250001	-253.1803894042969	59.65110015869142	-541.3190917968751	-285.2388305664063	41.25855255126954	-501.0340881347657	
